<svg xmlns="http://www.w3.org/2000/svg" viewBox="0 0 512 512" width="192" height="192">
  <defs>
    <linearGradient id="bgGrad192" x1="0%" y1="0%" x2="100%" y2="100%">
      <stop offset="0%" stop-color="#0f172a" />
      <stop offset="50%" stop-color="#090d16" />
      <stop offset="100%" stop-color="#020617" />
    </linearGradient>
    <linearGradient id="primaryGrad192" x1="0%" y1="0%" x2="100%" y2="100%">
      <stop offset="0%" stop-color="#34d399" />
      <stop offset="100%" stop-color="#059669" />
    </linearGradient>
    <linearGradient id="accentGrad192" x1="0%" y1="0%" x2="100%" y2="100%">
      <stop offset="0%" stop-color="#fbbf24" />
      <stop offset="100%" stop-color="#d97706" />
    </linearGradient>
  </defs>
  <rect width="512" height="512" rx="128" fill="url(#bgGrad192)" />
  <rect width="504" height="504" x="4" y="4" rx="124" fill="none" stroke="#10b981" stroke-width="8" stroke-opacity="0.4" />
  <g transform="translate(106, 96)">
    <rect x="30" y="90" width="240" height="200" rx="36" fill="url(#primaryGrad192)" />
    <path d="M 90 90 C 90 35, 210 35, 210 90" fill="none" stroke="#6ee7b7" stroke-width="24" stroke-linecap="round" />
    <path d="M 165 130 L 125 195 L 160 195 L 135 255 L 185 180 L 150 180 Z" fill="url(#accentGrad192)" />
    <circle cx="230" cy="130" r="18" fill="#f59e0b" />
    <path d="M 230 118 L 233 126 L 242 127 L 235 133 L 237 141 L 230 136 L 223 141 L 225 133 L 218 127 L 227 126 Z" fill="#ffffff" />
  </g>
  <text x="256" y="445" text-anchor="middle" fill="#ffffff" font-family="-apple-system, BlinkMacSystemFont, 'Segoe UI', Roboto, sans-serif" font-size="36" font-weight="900" letter-spacing="2">
    PEDIDOS <tspan fill="#34d399">TRINIDAD</tspan>
  </text>
</svg>
